simulate cocontraction
version=1
nRows=4
nColumns=195
inDegrees=yes
endheader
time	/jointset/ground_platform/platform_rx/value	/jointset/ground_platform/platform_rx/speed	/jointset/ground_platform/platform_ry/value	/jointset/ground_platform/platform_ry/speed	/jointset/ground_platform/platform_rz/value	/jointset/ground_platform/platform_rz/speed	/jointset/ground_platform/platform_ty/value	/jointset/ground_platform/platform_ty/speed	/jointset/ground_pelvis/pelvis_tilt/value	/jointset/ground_pelvis/pelvis_tilt/speed	/jointset/ground_pelvis/pelvis_list/value	/jointset/ground_pelvis/pelvis_list/speed	/jointset/ground_pelvis/pelvis_rotation/value	/jointset/ground_pelvis/pelvis_rotation/speed	/jointset/ground_pelvis/pelvis_tx/value	/jointset/ground_pelvis/pelvis_tx/speed	/jointset/ground_pelvis/pelvis_ty/value	/jointset/ground_pelvis/pelvis_ty/speed	/jointset/ground_pelvis/pelvis_tz/value	/jointset/ground_pelvis/pelvis_tz/speed	/jointset/hip_r/hip_flexion_r/value	/jointset/hip_r/hip_flexion_r/speed	/jointset/hip_r/hip_adduction_r/value	/jointset/hip_r/hip_adduction_r/speed	/jointset/hip_r/hip_rotation_r/value	/jointset/hip_r/hip_rotation_r/speed	/jointset/knee_r/knee_angle_r/value	/jointset/knee_r/knee_angle_r/speed	/jointset/ankle_r/ankle_angle_r/value	/jointset/ankle_r/ankle_angle_r/speed	/jointset/subtalar_r/subtalar_angle_r/value	/jointset/subtalar_r/subtalar_angle_r/speed	/jointset/mtp_r/mtp_angle_r/value	/jointset/mtp_r/mtp_angle_r/speed	/jointset/hip_l/hip_flexion_l/value	/jointset/hip_l/hip_flexion_l/speed	/jointset/hip_l/hip_adduction_l/value	/jointset/hip_l/hip_adduction_l/speed	/jointset/hip_l/hip_rotation_l/value	/jointset/hip_l/hip_rotation_l/speed	/jointset/knee_l/knee_angle_l/value	/jointset/knee_l/knee_angle_l/speed	/jointset/ankle_l/ankle_angle_l/value	/jointset/ankle_l/ankle_angle_l/speed	/jointset/subtalar_l/subtalar_angle_l/value	/jointset/subtalar_l/subtalar_angle_l/speed	/jointset/mtp_l/mtp_angle_l/value	/jointset/mtp_l/mtp_angle_l/speed	/jointset/back/lumbar_extension/value	/jointset/back/lumbar_extension/speed	/jointset/back/lumbar_bending/value	/jointset/back/lumbar_bending/speed	/jointset/back/lumbar_rotation/value	/jointset/back/lumbar_rotation/speed	/forceset/glut_med1_r/activation	/forceset/glut_med1_r/fiber_length	/forceset/glut_med2_r/activation	/forceset/glut_med2_r/fiber_length	/forceset/glut_med3_r/activation	/forceset/glut_med3_r/fiber_length	/forceset/bifemlh_r/activation	/forceset/bifemlh_r/fiber_length	/forceset/bifemsh_r/activation	/forceset/bifemsh_r/fiber_length	/forceset/sar_r/activation	/forceset/sar_r/fiber_length	/forceset/add_mag2_r/activation	/forceset/add_mag2_r/fiber_length	/forceset/tfl_r/activation	/forceset/tfl_r/fiber_length	/forceset/pect_r/activation	/forceset/pect_r/fiber_length	/forceset/grac_r/activation	/forceset/grac_r/fiber_length	/forceset/glut_max1_r/activation	/forceset/glut_max1_r/fiber_length	/forceset/glut_max2_r/activation	/forceset/glut_max2_r/fiber_length	/forceset/glut_max3_r/activation	/forceset/glut_max3_r/fiber_length	/forceset/iliacus_r/activation	/forceset/iliacus_r/fiber_length	/forceset/psoas_r/activation	/forceset/psoas_r/fiber_length	/forceset/quad_fem_r/activation	/forceset/quad_fem_r/fiber_length	/forceset/gem_r/activation	/forceset/gem_r/fiber_length	/forceset/peri_r/activation	/forceset/peri_r/fiber_length	/forceset/rect_fem_r/activation	/forceset/rect_fem_r/fiber_length	/forceset/vas_int_r/activation	/forceset/vas_int_r/fiber_length	/forceset/med_gas_r/activation	/forceset/med_gas_r/fiber_length	/forceset/lat_gas_r/activation	/forceset/lat_gas_r/fiber_length	/forceset/soleus_r/activation	/forceset/soleus_r/fiber_length	/forceset/tib_post_r/activation	/forceset/tib_post_r/fiber_length	/forceset/flex_dig_r/activation	/forceset/flex_dig_r/fiber_length	/forceset/flex_hal_r/activation	/forceset/flex_hal_r/fiber_length	/forceset/tib_ant_r/activation	/forceset/tib_ant_r/fiber_length	/forceset/per_brev_r/activation	/forceset/per_brev_r/fiber_length	/forceset/per_long_r/activation	/forceset/per_long_r/fiber_length	/forceset/per_tert_r/activation	/forceset/per_tert_r/fiber_length	/forceset/ext_dig_r/activation	/forceset/ext_dig_r/fiber_length	/forceset/ext_hal_r/activation	/forceset/ext_hal_r/fiber_length	/forceset/glut_med1_l/activation	/forceset/glut_med1_l/fiber_length	/forceset/glut_med2_l/activation	/forceset/glut_med2_l/fiber_length	/forceset/glut_med3_l/activation	/forceset/glut_med3_l/fiber_length	/forceset/bifemlh_l/activation	/forceset/bifemlh_l/fiber_length	/forceset/bifemsh_l/activation	/forceset/bifemsh_l/fiber_length	/forceset/sar_l/activation	/forceset/sar_l/fiber_length	/forceset/add_mag2_l/activation	/forceset/add_mag2_l/fiber_length	/forceset/tfl_l/activation	/forceset/tfl_l/fiber_length	/forceset/pect_l/activation	/forceset/pect_l/fiber_length	/forceset/grac_l/activation	/forceset/grac_l/fiber_length	/forceset/glut_max1_l/activation	/forceset/glut_max1_l/fiber_length	/forceset/glut_max2_l/activation	/forceset/glut_max2_l/fiber_length	/forceset/glut_max3_l/activation	/forceset/glut_max3_l/fiber_length	/forceset/iliacus_l/activation	/forceset/iliacus_l/fiber_length	/forceset/psoas_l/activation	/forceset/psoas_l/fiber_length	/forceset/quad_fem_l/activation	/forceset/quad_fem_l/fiber_length	/forceset/gem_l/activation	/forceset/gem_l/fiber_length	/forceset/peri_l/activation	/forceset/peri_l/fiber_length	/forceset/rect_fem_l/activation	/forceset/rect_fem_l/fiber_length	/forceset/vas_int_l/activation	/forceset/vas_int_l/fiber_length	/forceset/med_gas_l/activation	/forceset/med_gas_l/fiber_length	/forceset/lat_gas_l/activation	/forceset/lat_gas_l/fiber_length	/forceset/soleus_l/activation	/forceset/soleus_l/fiber_length	/forceset/tib_post_l/activation	/forceset/tib_post_l/fiber_length	/forceset/flex_dig_l/activation	/forceset/flex_dig_l/fiber_length	/forceset/flex_hal_l/activation	/forceset/flex_hal_l/fiber_length	/forceset/tib_ant_l/activation	/forceset/tib_ant_l/fiber_length	/forceset/per_brev_l/activation	/forceset/per_brev_l/fiber_length	/forceset/per_long_l/activation	/forceset/per_long_l/fiber_length	/forceset/per_tert_l/activation	/forceset/per_tert_l/fiber_length	/forceset/ext_dig_l/activation	/forceset/ext_dig_l/fiber_length	/forceset/ext_hal_l/activation	/forceset/ext_hal_l/fiber_length	/forceset/ercspn_r/activation	/forceset/ercspn_r/fiber_length	/forceset/ercspn_l/activation	/forceset/ercspn_l/fiber_length	/forceset/intobl_r/activation	/forceset/intobl_r/fiber_length	/forceset/intobl_l/activation	/forceset/intobl_l/fiber_length	/forceset/extobl_r/activation	/forceset/extobl_r/fiber_length	/forceset/extobl_l/activation	/forceset/extobl_l/fiber_length
      0.31577406	     20.00000000	      0.00000000	     -0.00000000	     -0.00000000	     -0.00000000	     -0.00000000	      0.25000000	      0.00000000	     -7.42203814	     12.26042249	     -0.07976791	      0.22645390	      1.17491865	      2.50727629	      0.05146437	      0.00782300	      1.19064161	     -3.07338316	     -0.00212092	     -0.00349751	     11.30718806	    -15.49088536	     -1.42763342	     -1.51830715	     -4.01724936	    -26.95468393	    -17.59177873	    -25.68503394	     24.00131218	     29.16020037	     -1.47595534	     -4.22440613	      0.00000000	      0.00000000	    -19.99999998	      0.00000000	     10.00000028	      0.00000000	      4.99999985	      0.00000000	   -119.99999986	     -0.00000000	     11.49999977	     -0.00000000	     -0.03000064	      0.00000000	     -0.00000000	     -0.00000000	     -5.44040333	    -12.80486657	      0.05961911	     -0.48737510	      0.25204998	      2.94089495	     -0.01521344	      0.04705119	     -0.01521344	      0.08142686	     -0.01521344	      0.06249246	     -0.01521344	      0.09578715	     -0.01521344	      0.16379049	     -0.01521344	      0.45696084	     -0.01521344	      0.07767981	     -0.01521344	      0.10384053	     -0.01521344	      0.06704079	     -0.01521344	      0.30921570	     -0.01521344	      0.08278590	     -0.01521344	      0.09144841	     -0.01521344	      0.10452167	     -0.01521344	      0.09979019	     -0.01521344	      0.09389478	     -0.01521344	      0.04337161	     -0.01521344	      0.02302218	     -0.01521344	      0.02125998	     -0.01521344	      0.10527779	     -0.01521344	      0.07990224	     -0.01521344	      0.10248015	     -0.01521344	      0.07547785	     -0.01521344	      0.09314722	      0.20000000	      0.03477184	      0.20000000	      0.03054304	      0.20000000	      0.04009961	      0.20000000	      0.06059736	      0.60000000	      0.04677844	      0.60000000	      0.04541273	      0.60000000	      0.06698834	      0.60000000	      0.07344163	      0.20000000	      0.08369249	     -0.01521344	      0.04646954	     -0.01521344	      0.07924345	     -0.01521344	      0.06066849	     -0.01521344	      0.02207317	     -0.01521344	      0.12238178	     -0.01521344	      0.45556126	     -0.01521344	      0.05828642	     -0.01521344	      0.13391495	     -0.01521344	      0.07307389	     -0.01521344	      0.24301553	     -0.01521344	      0.06638073	     -0.01521344	      0.06554424	     -0.01521344	      0.05770037	     -0.01521344	      0.11895704	     -0.01521344	      0.11276383	     -0.01521344	      0.04385542	     -0.01521344	      0.02477863	     -0.01521344	      0.02332632	     -0.01521344	      0.18251851	     -0.01521344	      0.13945923	     -0.01521344	      0.06773753	     -0.01521344	      0.04190303	     -0.01521344	      0.08593352	     -0.01521344	      0.03561974	     -0.01521344	      0.03422261	     -0.01521344	      0.04261726	     -0.01521344	      0.07211219	     -0.01521344	      0.05030460	     -0.01521344	      0.05155944	     -0.01521344	      0.07464108	     -0.01521344	      0.08888354	     -0.01521344	      0.09641127	     -0.01521344	      0.12343085	     -0.01521344	      0.12359583	     -0.01521344	      0.09387353	     -0.01521344	      0.09376589	     -0.01521344	      0.12700563	     -0.01521344	      0.12739163
      0.31625148	     20.00000000	      0.00000000	     -0.00000000	     -0.00000000	     -0.00000000	     -0.00000000	      0.25000000	      0.00000000	     -7.41619019	     12.23808622	     -0.07965863	      0.23132395	      1.17611887	      2.52073698	      0.05146812	      0.00787537	      1.18917321	     -3.07811918	     -0.00212259	     -0.00352323	     11.29979866	    -15.46514246	     -1.42836156	     -1.53203000	     -4.03012056	    -26.96600172	    -17.60405075	    -25.72551037	     24.01522652	     29.13042250	     -1.47797060	     -4.21801831	      0.00000000	      0.00000000	    -19.99999998	      0.00000000	     10.00000028	      0.00000000	      4.99999985	      0.00000000	   -119.99999986	     -0.00000000	     11.49999977	     -0.00000000	     -0.03000064	      0.00000000	     -0.00000000	     -0.00000000	     -5.44650676	    -12.76389362	      0.05938552	     -0.49119515	      0.25344780	      2.91487767	     -0.01527490	      0.04705528	     -0.01527490	      0.08142363	     -0.01527490	      0.06248430	     -0.01527490	      0.09577085	     -0.01527490	      0.16378469	     -0.01527490	      0.45696498	     -0.01527490	      0.07767676	     -0.01527490	      0.10384927	     -0.01527490	      0.06704430	     -0.01527490	      0.30920821	     -0.01527490	      0.08277719	     -0.01527490	      0.09143790	     -0.01527490	      0.10450813	     -0.01527490	      0.09979659	     -0.01527490	      0.09390080	     -0.01527490	      0.04336134	     -0.01527490	      0.02301454	     -0.01527490	      0.02125291	     -0.01527490	      0.10529409	     -0.01527490	      0.07991194	     -0.01527490	      0.10248411	     -0.01527490	      0.07548178	     -0.01527490	      0.09315482	      0.20000000	      0.03477455	      0.20000000	      0.03054549	      0.20000000	      0.04010323	      0.20000000	      0.06058740	      0.60000000	      0.04677806	      0.60000000	      0.04541337	      0.60000000	      0.06698241	      0.60000000	      0.07343177	      0.20000000	      0.08368213	     -0.01527490	      0.04646954	     -0.01527490	      0.07924345	     -0.01527490	      0.06066849	     -0.01527490	      0.02207317	     -0.01527490	      0.12238178	     -0.01527490	      0.45556126	     -0.01527490	      0.05828642	     -0.01527490	      0.13391495	     -0.01527490	      0.07307389	     -0.01527490	      0.24301553	     -0.01527490	      0.06638073	     -0.01527490	      0.06554424	     -0.01527490	      0.05770037	     -0.01527490	      0.11895704	     -0.01527490	      0.11276383	     -0.01527490	      0.04385542	     -0.01527490	      0.02477863	     -0.01527490	      0.02332632	     -0.01527490	      0.18252045	     -0.01527490	      0.13945923	     -0.01527490	      0.06773753	     -0.01527490	      0.04190304	     -0.01527490	      0.08593352	     -0.01527490	      0.03561974	     -0.01527490	      0.03422269	     -0.01527490	      0.04261735	     -0.01527490	      0.07211219	     -0.01527490	      0.05030460	     -0.01527490	      0.05155945	     -0.01527490	      0.07464108	     -0.01527490	      0.08888355	     -0.01527490	      0.09641127	     -0.01527490	      0.12343503	     -0.01527490	      0.12360021	     -0.01527490	      0.09386911	     -0.01527490	      0.09375884	     -0.01527490	      0.12699797	     -0.01527490	      0.12738515
      0.31863854	     20.00000000	      0.00000000	     -0.00000000	     -0.00000000	     -0.00000000	     -0.00000000	      0.25000000	      0.00000000	     -7.38711063	     12.12614350	     -0.07907758	      0.25545004	      1.18221669	      2.58843261	      0.05148723	      0.00813880	      1.18179728	     -3.10179994	     -0.00213116	     -0.00365308	     11.26303518	    -15.33740821	     -1.43210038	     -1.60049387	     -4.09455808	    -27.02309462	    -17.66569848	    -25.92531151	     24.08458548	     28.98213670	     -1.48800131	     -4.18625393	      0.00000000	      0.00000000	    -19.99999998	      0.00000000	     10.00000028	      0.00000000	      4.99999985	      0.00000000	   -119.99999986	     -0.00000000	     11.49999977	     -0.00000000	     -0.03000064	      0.00000000	     -0.00000000	     -0.00000000	     -5.47672994	    -12.55843640	      0.05819059	     -0.50985208	      0.26024989	      2.78405747	     -0.01558224	      0.04707570	     -0.01558224	      0.08140746	     -0.01558224	      0.06244346	     -0.01558224	      0.09568944	     -0.01558224	      0.16375557	     -0.01558224	      0.45698541	     -0.01558224	      0.07766175	     -0.01558224	      0.10389281	     -0.01558224	      0.06706184	     -0.01558224	      0.30917075	     -0.01558224	      0.08273372	     -0.01558224	      0.09138548	     -0.01558224	      0.10444069	     -0.01558224	      0.09982848	     -0.01558224	      0.09393080	     -0.01558224	      0.04331001	     -0.01558224	      0.02297627	     -0.01558224	      0.02121747	     -0.01558224	      0.10537568	     -0.01558224	      0.07996064	     -0.01558224	      0.10250366	     -0.01558224	      0.07550118	     -0.01558224	      0.09319272	      0.20000000	      0.03478807	      0.20000000	      0.03055769	      0.20000000	      0.04012127	      0.20000000	      0.06053781	      0.60000000	      0.04677618	      0.60000000	      0.04541658	      0.60000000	      0.06695286	      0.60000000	      0.07338265	      0.20000000	      0.08363049	     -0.01558224	      0.04646954	     -0.01558224	      0.07924345	     -0.01558224	      0.06066849	     -0.01558224	      0.02207317	     -0.01558224	      0.12238178	     -0.01558224	      0.45556126	     -0.01558224	      0.05828642	     -0.01558224	      0.13391495	     -0.01558224	      0.07307389	     -0.01558224	      0.24301553	     -0.01558224	      0.06638073	     -0.01558224	      0.06554424	     -0.01558224	      0.05770037	     -0.01558224	      0.11895704	     -0.01558224	      0.11276383	     -0.01558224	      0.04385542	     -0.01558224	      0.02477863	     -0.01558224	      0.02332634	     -0.01558224	      0.18291507	     -0.01558224	      0.13945923	     -0.01558224	      0.06773754	     -0.01558224	      0.04190311	     -0.01558224	      0.08593352	     -0.01558224	      0.03561974	     -0.01558224	      0.03422308	     -0.01558224	      0.04261782	     -0.01558224	      0.07211219	     -0.01558224	      0.05030460	     -0.01558224	      0.05155948	     -0.01558224	      0.07464108	     -0.01558224	      0.08888355	     -0.01558224	      0.09641127	     -0.01558224	      0.12345577	     -0.01558224	      0.12362184	     -0.01558224	      0.09384723	     -0.01558224	      0.09372389	     -0.01558224	      0.12696013	     -0.01558224	      0.12735292
      0.31866241	     20.00000000	      0.00000000	     -0.00000000	     -0.00000000	     -0.00000000	     -0.00000000	      0.25000000	      0.00000000	     -7.38682119	     12.12502196	     -0.07907148	      0.25568934	      1.18227849	      2.58911271	      0.05148742	      0.00814145	      1.18172324	     -3.10203675	     -0.00213124	     -0.00365439	     11.26266908	    -15.33613917	     -1.43213859	     -1.60117711	     -4.09520314	    -27.02366965	    -17.66631736	    -25.92728776	     24.08527728	     28.98065876	     -1.48810123	     -4.18593785	      0.00000000	      0.00000000	    -19.99999998	      0.00000000	     10.00000028	      0.00000000	      4.99999985	      0.00000000	   -119.99999986	     -0.00000000	     11.49999977	     -0.00000000	     -0.03000064	      0.00000000	     -0.00000000	     -0.00000000	     -5.47702970	    -12.55637700	      0.05817842	     -0.51003485	      0.26031633	      2.78274339	     -0.01558531	      0.04707591	     -0.01558531	      0.08140730	     -0.01558531	      0.06244305	     -0.01558531	      0.09568862	     -0.01558531	      0.16375528	     -0.01558531	      0.45698561	     -0.01558531	      0.07766160	     -0.01558531	      0.10389324	     -0.01558531	      0.06706201	     -0.01558531	      0.30917037	     -0.01558531	      0.08273329	     -0.01558531	      0.09138496	     -0.01558531	      0.10444002	     -0.01558531	      0.09982880	     -0.01558531	      0.09393110	     -0.01558531	      0.04330950	     -0.01558531	      0.02297589	     -0.01558531	      0.02121712	     -0.01558531	      0.10537650	     -0.01558531	      0.07996113	     -0.01558531	      0.10250385	     -0.01558531	      0.07550137	     -0.01558531	      0.09319310	      0.20000000	      0.03478821	      0.20000000	      0.03055781	      0.20000000	      0.04012145	      0.20000000	      0.06053732	      0.60000000	      0.04677616	      0.60000000	      0.04541661	      0.60000000	      0.06695257	      0.60000000	      0.07338216	      0.20000000	      0.08362998	     -0.01558531	      0.04646954	     -0.01558531	      0.07924345	     -0.01558531	      0.06066849	     -0.01558531	      0.02207317	     -0.01558531	      0.12238178	     -0.01558531	      0.45556126	     -0.01558531	      0.05828642	     -0.01558531	      0.13391495	     -0.01558531	      0.07307389	     -0.01558531	      0.24301553	     -0.01558531	      0.06638073	     -0.01558531	      0.06554424	     -0.01558531	      0.05770037	     -0.01558531	      0.11895704	     -0.01558531	      0.11276383	     -0.01558531	      0.04385542	     -0.01558531	      0.02477863	     -0.01558531	      0.02332634	     -0.01558531	      0.18262752	     -0.01558531	      0.13945923	     -0.01558531	      0.06773754	     -0.01558531	      0.04190311	     -0.01558531	      0.08593352	     -0.01558531	      0.03561974	     -0.01558531	      0.03422308	     -0.01558531	      0.04261782	     -0.01558531	      0.07211219	     -0.01558531	      0.05030460	     -0.01558531	      0.05155948	     -0.01558531	      0.07464108	     -0.01558531	      0.08888355	     -0.01558531	      0.09641127	     -0.01558531	      0.12345598	     -0.01558531	      0.12362205	     -0.01558531	      0.09384701	     -0.01558531	      0.09372355	     -0.01558531	      0.12695975	     -0.01558531	      0.12735260
